<?xml version="1.0" encoding="UTF-8"?>
<svg width="256" height="256" viewBox="0 0 256 256" fill="none" xmlns="http://www.w3.org/2000/svg">
  <defs>
    <linearGradient id="g" x1="0" y1="0" x2="1" y2="1">
      <stop offset="0%" stop-color="#3b82f6"/>
      <stop offset="100%" stop-color="#8b5cf6"/>
    </linearGradient>
    <filter id="shadow" x="-20%" y="-20%" width="140%" height="140%">
      <feDropShadow dx="0" dy="4" stdDeviation="6" flood-color="#000" flood-opacity="0.25"/>
    </filter>
  </defs>
  <rect x="16" y="16" width="224" height="224" rx="48" fill="url(#g)" filter="url(#shadow)"/>
  <path d="M128 54l14.8 30 33.2 4.8-24 23.4 5.7 33.1-29.7-15.6-29.7 15.6 5.7-33.1-24-23.4 33.2-4.8L128 54z" fill="#ffffff"/>
  <path d="M170 182c0 20-16 30-42 30-21 0-37-7-46-18l16-12c5 6 15 12 30 12 13 0 22-5 22-12 0-8-9-10-24-12-24-3-44-9-44-30 0-19 18-30 41-30 18 0 32 5 42 14l-15 12c-6-5-16-8-27-8-12 0-20 4-20 11 0 7 10 9 24 11 26 4 43 10 43 30z" fill="#ffffff" opacity="0.95"/>
</svg>
<svg width="32" height="32" viewBox="0 0 32 32" fill="none" xmlns="http://www.w3.org/2000/svg">
  <rect width="32" height="32" rx="8" fill="url(#gradient)"/>
  <path d="M8 12h16v2H8v-2zm0 4h16v2H8v-2zm0 4h12v2H8v-2z" fill="white"/>
  <defs>
    <linearGradient id="gradient" x1="0" y1="0" x2="32" y2="32" gradientUnits="userSpaceOnUse">
      <stop stop-color="#3B82F6"/>
      <stop offset="1" stop-color="#8B5CF6"/>
    </linearGradient>
  </defs>
</svg>
